<svg width="26" height="26" viewBox="0 0 26 26" fill="none" xmlns="http://www.w3.org/2000/svg">
<path fill-rule="evenodd" clip-rule="evenodd" d="M16.934 1.59277C17.3633 1.59277 17.7118 1.94122 17.7118 2.37055L17.7122 3.24976C19.2264 3.35358 20.484 3.87223 21.3741 4.76414C22.3458 5.73999 22.857 7.1431 22.8519 8.82621V18.2871C22.8519 21.7425 20.6575 23.8892 17.1263 23.8892H8.35509C4.82398 23.8892 2.62961 21.7124 2.62961 18.2083V8.82414C2.62961 5.56493 4.58655 3.47286 7.77817 3.25012L7.77881 2.37055C7.77881 1.94122 8.12725 1.59277 8.55659 1.59277C8.98592 1.59277 9.33436 1.94122 9.33436 2.37055L9.33405 3.23026H16.1557L16.1562 2.37055C16.1562 1.94122 16.5046 1.59277 16.934 1.59277ZM21.2963 10.8266H4.18516V18.2083C4.18516 20.8693 5.66605 22.3336 8.35509 22.3336H17.1263C19.8154 22.3336 21.2963 20.8963 21.2963 18.2871L21.2963 10.8266ZM17.3568 17.3519C17.7861 17.3519 18.1346 17.7003 18.1346 18.1297C18.1346 18.559 17.7861 18.9075 17.3568 18.9075C16.9274 18.9075 16.5749 18.559 16.5749 18.1297C16.5749 17.7003 16.9181 17.3519 17.3474 17.3519H17.3568ZM12.7549 17.3519C13.1843 17.3519 13.5327 17.7003 13.5327 18.1297C13.5327 18.559 13.1843 18.9075 12.7549 18.9075C12.3256 18.9075 11.973 18.559 11.973 18.1297C11.973 17.7003 12.3163 17.3519 12.7456 17.3519H12.7549ZM8.14343 17.3519C8.57276 17.3519 8.92121 17.7003 8.92121 18.1297C8.92121 18.559 8.57276 18.9075 8.14343 18.9075C7.7141 18.9075 7.36047 18.559 7.36047 18.1297C7.36047 17.7003 7.70476 17.3519 8.1341 17.3519H8.14343ZM17.3568 13.3212C17.7861 13.3212 18.1346 13.6697 18.1346 14.099C18.1346 14.5284 17.7861 14.8768 17.3568 14.8768C16.9274 14.8768 16.5749 14.5284 16.5749 14.099C16.5749 13.6697 16.9181 13.3212 17.3474 13.3212H17.3568ZM12.7549 13.3212C13.1843 13.3212 13.5327 13.6697 13.5327 14.099C13.5327 14.5284 13.1843 14.8768 12.7549 14.8768C12.3256 14.8768 11.973 14.5284 11.973 14.099C11.973 13.6697 12.3163 13.3212 12.7456 13.3212H12.7549ZM8.14343 13.3212C8.57276 13.3212 8.92121 13.6697 8.92121 14.099C8.92121 14.5284 8.57276 14.8768 8.14343 14.8768C7.7141 14.8768 7.36047 14.5284 7.36047 14.099C7.36047 13.6697 7.70476 13.3212 8.1341 13.3212H8.14343ZM16.1557 4.78581H9.33405L9.33436 5.78344C9.33436 6.21277 8.98592 6.56122 8.55659 6.56122C8.12725 6.56122 7.77881 6.21277 7.77881 5.78344L7.77826 4.80935C5.45505 5.00451 4.18516 6.41277 4.18516 8.82414V9.271H21.2963L21.2963 8.82414C21.3004 7.5434 20.9561 6.54784 20.2727 5.8634C19.6728 5.26172 18.7958 4.90237 17.7126 4.80985L17.7118 5.78344C17.7118 6.21277 17.3633 6.56122 16.934 6.56122C16.5046 6.56122 16.1562 6.21277 16.1562 5.78344L16.1557 4.78581Z" fill="#32393A"/>
</svg>
