<svg width="30" height="30" viewBox="0 0 30 30" fill="none" xmlns="http://www.w3.org/2000/svg">
<path fill-rule="evenodd" clip-rule="evenodd" d="M14.3905 3.04405C14.8873 3.04405 15.2905 3.44725 15.2905 3.94405C15.2905 4.44085 14.8873 4.84405 14.3905 4.84405H9.90372C6.80292 4.84405 4.80012 6.96805 4.80012 10.2548V20.2316C4.80012 23.5184 6.80292 25.6425 9.90372 25.6425H20.4925C23.5933 25.6425 25.5973 23.5184 25.5973 20.2316V15.398C25.5973 14.9012 26.0005 14.498 26.4973 14.498C26.9941 14.498 27.3973 14.9012 27.3973 15.398V20.2316C27.3973 24.5444 24.6217 27.4424 20.4925 27.4424H9.90372C5.77452 27.4424 3.00012 24.5444 3.00012 20.2316V10.2548C3.00012 5.94205 5.77452 3.04405 9.90372 3.04405H14.3905ZM24.842 4.09837L26.3024 5.55877C27.014 6.26917 27.4052 7.21357 27.404 8.21917C27.404 9.22477 27.0128 10.168 26.3024 10.8772L17.2916 19.888C16.6304 20.5492 15.7496 20.914 14.8136 20.914H10.3184C10.076 20.914 9.84324 20.8156 9.67404 20.6416C9.50484 20.4688 9.41244 20.2348 9.41844 19.9912L9.53124 15.4564C9.55404 14.554 9.91764 13.7056 10.556 13.066H10.5572L19.5248 4.09837C20.9912 2.63437 23.3756 2.63437 24.842 4.09837ZM18.7861 7.38157L11.8292 14.3392C11.5184 14.65 11.342 15.0628 11.3312 15.5008L11.2412 19.114H14.8136C15.2696 19.114 15.6968 18.9376 16.0196 18.6148L23.0185 11.614L18.7861 7.38157ZM20.7968 5.37157L20.0581 6.10837L24.2905 10.342L25.0304 9.60397C25.4 9.23437 25.604 8.74237 25.604 8.21917C25.604 7.69477 25.4 7.20157 25.0304 6.83197L23.57 5.37157C22.8056 4.60957 21.5624 4.60957 20.7968 5.37157Z" fill="#32393A"/>
</svg>
