<svg width="30" height="30" viewBox="0 0 30 30" fill="none" xmlns="http://www.w3.org/2000/svg">
<path fill-rule="evenodd" clip-rule="evenodd" d="M20.2008 3C24.2676 3 27 5.8536 27 10.0992V19.9008C27 24.1464 24.2676 27 20.1984 27H9.7968C5.7312 27 3 24.1464 3 19.9008V10.0992C3 5.8536 5.7312 3 9.7968 3H20.2008ZM20.2008 4.8H9.7968C6.762 4.8 4.8 6.8796 4.8 10.0992V19.9008C4.8 23.1204 6.762 25.2 9.7968 25.2H20.1984C23.2368 25.2 25.2 23.1204 25.2 19.9008V10.0992C25.2 6.8796 23.2368 4.8 20.2008 4.8ZM11.2042 11.8781C12.6145 11.8791 13.8065 12.816 14.1939 14.0987L21.0116 14.0994C21.5084 14.0994 21.9116 14.5026 21.9116 14.9994V17.223C21.9116 17.7198 21.5084 18.123 21.0116 18.123C20.5148 18.123 20.1116 17.7198 20.1116 17.223V15.8994L18.5172 15.8988L18.5178 17.223C18.5178 17.7198 18.1146 18.123 17.6178 18.123C17.121 18.123 16.7178 17.7198 16.7178 17.223L16.7172 15.8988L14.1945 15.9C13.8073 17.1841 12.6134 18.1229 11.2042 18.1229C9.48216 18.1229 8.08176 16.7213 8.08176 15.0005C8.08176 13.2785 9.48216 11.8781 11.2042 11.8781ZM11.2066 13.6781C10.4746 13.6781 9.88176 14.2709 9.88176 15.0005C9.88176 15.7301 10.4746 16.3229 11.2042 16.3229C11.9326 16.3229 12.5266 15.7301 12.5266 15.0005C12.5266 14.2721 11.9338 13.6793 11.2066 13.6781Z" fill="#32393A"/>
</svg>
