<svg width="80" height="26" viewBox="0 0 80 26" fill="none" xmlns="http://www.w3.org/2000/svg">
<path d="M1 7.36294L2.44444 7.05443C3.88889 6.74593 6.77778 6.12892 9.66667 9.91792C12.5556 13.7069 15.4444 21.9019 18.3333 24.2314C21.2222 26.5608 24.1111 23.0247 27 21.1827C29.8889 19.3406 32.7778 19.1926 35.6667 19.5668C38.5556 19.9409 41.4444 20.8372 44.3333 20.3131C47.2222 19.7891 50.1111 17.8446 53 15.3251C55.8889 12.8056 58.7778 9.71108 61.6667 9.41969C64.5556 9.12831 67.4444 11.6401 70.3333 10.704C73.2222 9.76793 76.1111 5.38396 77.5556 3.19198L79 1" stroke="#3F8CFF" stroke-width="2" stroke-linecap="round"/>
</svg>
