<svg width="24" height="24" viewBox="0 0 24 24" fill="none" xmlns="http://www.w3.org/2000/svg">
<path fill-rule="evenodd" clip-rule="evenodd" d="M13.2294 2C10.7834 2 8.79335 3.99 8.79335 6.436V7.368C8.79335 7.782 9.12935 8.118 9.54335 8.118C9.95735 8.118 10.2934 7.782 10.2934 7.368V6.436C10.2934 4.816 11.6104 3.5 13.2294 3.5H18.1044C19.7214 3.5 21.0374 4.816 21.0374 6.436V17.565C21.0374 19.184 19.7214 20.5 18.1044 20.5H13.2184C11.6064 20.5 10.2934 19.188 10.2934 17.576V16.633C10.2934 16.219 9.95735 15.883 9.54335 15.883C9.12935 15.883 8.79335 16.219 8.79335 16.633V17.576C8.79335 20.016 10.7794 22 13.2184 22H18.1044C20.5484 22 22.5374 20.011 22.5374 17.565V6.436C22.5374 3.99 20.5484 2 18.1044 2H13.2294ZM5.14925 8.554L2.22125 11.469C2.19513 11.4949 2.17174 11.5219 2.15033 11.5504L2.22125 11.469C2.18582 11.5039 2.15431 11.5421 2.12698 11.5828C2.11494 11.6012 2.10334 11.6203 2.09258 11.6399C2.08385 11.6552 2.07582 11.6712 2.06837 11.6875C2.06206 11.7018 2.056 11.7162 2.05038 11.7308C2.04284 11.7498 2.03624 11.7693 2.03045 11.7891C2.02609 11.8047 2.02208 11.8203 2.01856 11.836C2.01409 11.8551 2.01058 11.8743 2.00781 11.8937C2.00624 11.9063 2.00471 11.9195 2.00353 11.9328C2.00124 11.9556 2.00025 11.9777 2.00025 12L2.00535 12.062L2.0074 12.1017C2.00763 12.1034 2.00787 12.1051 2.00811 12.1068L2.00025 12C2.00025 12.0555 2.0064 12.1105 2.01834 12.1639C2.02208 12.1797 2.02609 12.1953 2.03058 12.2107C2.03624 12.2307 2.04284 12.2502 2.05024 12.2695C2.056 12.2838 2.06206 12.2982 2.06855 12.3123C2.07582 12.3288 2.08385 12.3448 2.09246 12.3605C2.10334 12.3797 2.11494 12.3988 2.12735 12.4172C2.13437 12.4282 2.14207 12.439 2.15007 12.4497C2.17388 12.481 2.19982 12.5104 2.2279 12.5377L5.14925 15.447C5.29525 15.593 5.48725 15.666 5.67825 15.666C5.87025 15.666 6.06325 15.593 6.20925 15.445C6.50125 15.151 6.50025 14.677 6.20725 14.385L4.56735 12.75H14.7916C15.2056 12.75 15.5416 12.414 15.5416 12C15.5416 11.586 15.2056 11.25 14.7916 11.25H4.56535L6.20725 9.616C6.50025 9.324 6.50225 8.85 6.20925 8.556C5.91725 8.262 5.44325 8.262 5.14925 8.554Z" fill="#747474"/>
</svg>
